<?xml version="1.0" encoding="utf-8" standalone="no"?>
<!DOCTYPE svg PUBLIC "-//W3C//DTD SVG 1.1//EN"
  "http://www.w3.org/Graphics/SVG/1.1/DTD/svg11.dtd">
<svg xmlns:xlink="http://www.w3.org/1999/xlink" width="432pt" height="288pt" viewBox="0 0 432 288" xmlns="http://www.w3.org/2000/svg" version="1.1">
 <metadata>
  <rdf:RDF xmlns:dc="http://purl.org/dc/elements/1.1/" xmlns:cc="http://creativecommons.org/ns#" xmlns:rdf="http://www.w3.org/1999/02/22-rdf-syntax-ns#">
   <cc:Work>
    <dc:type rdf:resource="http://purl.org/dc/dcmitype/StillImage"/>
    <dc:date>2025-05-08T12:22:16.262853</dc:date>
    <dc:format>image/svg+xml</dc:format>
    <dc:creator>
     <cc:Agent>
      <dc:title>Matplotlib v3.9.4, https://matplotlib.org/</dc:title>
     </cc:Agent>
    </dc:creator>
   </cc:Work>
  </rdf:RDF>
 </metadata>
 <defs>
  <style type="text/css">*{stroke-linejoin: round; stroke-linecap: butt}</style>
 </defs>
 <g id="figure_1">
  <g id="patch_1">
   <path d="M 0 288 
L 432 288 
L 432 0 
L 0 0 
z
" style="fill: #ffffff"/>
  </g>
  <g id="axes_1">
   <g id="patch_2">
    <path d="M 69.215597 120.46638 
L 421.2 120.46638 
L 421.2 27.6 
L 69.215597 27.6 
z
" style="fill: #ffffff"/>
   </g>
   <g id="patch_3">
    <path d="M 86.814817 120.46638 
L 122.013258 120.46638 
L 122.013258 32.022209 
L 86.814817 32.022209 
z
" clip-path="url(#p0ece1748b2)" style="fill: #7f7f7f; stroke: #000000; stroke-linejoin: miter"/>
   </g>
   <g id="patch_4">
    <path d="M 157.211698 120.46638 
L 192.410138 120.46638 
L 192.410138 79.245281 
L 157.211698 79.245281 
z
" clip-path="url(#p0ece1748b2)" style="fill: #7f7f7f; stroke: #000000; stroke-linejoin: miter"/>
   </g>
   <g id="patch_5">
    <path d="M 227.608579 120.46638 
L 262.807019 120.46638 
L 262.807019 119.069694 
L 227.608579 119.069694 
z
" clip-path="url(#p0ece1748b2)" style="fill: #7f7f7f; stroke: #000000; stroke-linejoin: miter"/>
   </g>
   <g id="patch_6">
    <path d="M 298.005459 120.46638 
L 333.203899 120.46638 
L 333.203899 120.277639 
L 298.005459 120.277639 
z
" clip-path="url(#p0ece1748b2)" style="fill: #7f7f7f; stroke: #000000; stroke-linejoin: miter"/>
   </g>
   <g id="patch_7">
    <path d="M 368.40234 120.46638 
L 403.60078 120.46638 
L 403.60078 120.447506 
L 368.40234 120.447506 
z
" clip-path="url(#p0ece1748b2)" style="fill: #7f7f7f; stroke: #000000; stroke-linejoin: miter"/>
   </g>
   <g id="matplotlib.axis_1">
    <g id="xtick_1">
     <g id="line2d_1">
      <defs>
       <path id="mfcbcd7b70b" d="M 0 0 
L 0 3.5 
" style="stroke: #000000; stroke-width: 0.8"/>
      </defs>
      <g>
       <use xlink:href="#mfcbcd7b70b" x="104.414038" y="120.46638" style="stroke: #000000; stroke-width: 0.8"/>
      </g>
     </g>
     <g id="text_1">
      <!-- no source code found -->
      <g transform="translate(18.81158 217.361418) rotate(-45) scale(0.11 -0.11)">
       <defs>
        <path id="DejaVuSans-6e" d="M 3513 2113 
L 3513 0 
L 2938 0 
L 2938 2094 
Q 2938 2591 2744 2837 
Q 2550 3084 2163 3084 
Q 1697 3084 1428 2787 
Q 1159 2491 1159 1978 
L 1159 0 
L 581 0 
L 581 3500 
L 1159 3500 
L 1159 2956 
Q 1366 3272 1645 3428 
Q 1925 3584 2291 3584 
Q 2894 3584 3203 3211 
Q 3513 2838 3513 2113 
z
" transform="scale(0.015625)"/>
        <path id="DejaVuSans-6f" d="M 1959 3097 
Q 1497 3097 1228 2736 
Q 959 2375 959 1747 
Q 959 1119 1226 758 
Q 1494 397 1959 397 
Q 2419 397 2687 759 
Q 2956 1122 2956 1747 
Q 2956 2369 2687 2733 
Q 2419 3097 1959 3097 
z
M 1959 3584 
Q 2709 3584 3137 3096 
Q 3566 2609 3566 1747 
Q 3566 888 3137 398 
Q 2709 -91 1959 -91 
Q 1206 -91 779 398 
Q 353 888 353 1747 
Q 353 2609 779 3096 
Q 1206 3584 1959 3584 
z
" transform="scale(0.015625)"/>
        <path id="DejaVuSans-20" transform="scale(0.015625)"/>
        <path id="DejaVuSans-73" d="M 2834 3397 
L 2834 2853 
Q 2591 2978 2328 3040 
Q 2066 3103 1784 3103 
Q 1356 3103 1142 2972 
Q 928 2841 928 2578 
Q 928 2378 1081 2264 
Q 1234 2150 1697 2047 
L 1894 2003 
Q 2506 1872 2764 1633 
Q 3022 1394 3022 966 
Q 3022 478 2636 193 
Q 2250 -91 1575 -91 
Q 1294 -91 989 -36 
Q 684 19 347 128 
L 347 722 
Q 666 556 975 473 
Q 1284 391 1588 391 
Q 1994 391 2212 530 
Q 2431 669 2431 922 
Q 2431 1156 2273 1281 
Q 2116 1406 1581 1522 
L 1381 1569 
Q 847 1681 609 1914 
Q 372 2147 372 2553 
Q 372 3047 722 3315 
Q 1072 3584 1716 3584 
Q 2034 3584 2315 3537 
Q 2597 3491 2834 3397 
z
" transform="scale(0.015625)"/>
        <path id="DejaVuSans-75" d="M 544 1381 
L 544 3500 
L 1119 3500 
L 1119 1403 
Q 1119 906 1312 657 
Q 1506 409 1894 409 
Q 2359 409 2629 706 
Q 2900 1003 2900 1516 
L 2900 3500 
L 3475 3500 
L 3475 0 
L 2900 0 
L 2900 538 
Q 2691 219 2414 64 
Q 2138 -91 1772 -91 
Q 1169 -91 856 284 
Q 544 659 544 1381 
z
M 1991 3584 
L 1991 3584 
z
" transform="scale(0.015625)"/>
        <path id="DejaVuSans-72" d="M 2631 2963 
Q 2534 3019 2420 3045 
Q 2306 3072 2169 3072 
Q 1681 3072 1420 2755 
Q 1159 2438 1159 1844 
L 1159 0 
L 581 0 
L 581 3500 
L 1159 3500 
L 1159 2956 
Q 1341 3275 1631 3429 
Q 1922 3584 2338 3584 
Q 2397 3584 2469 3576 
Q 2541 3569 2628 3553 
L 2631 2963 
z
" transform="scale(0.015625)"/>
        <path id="DejaVuSans-63" d="M 3122 3366 
L 3122 2828 
Q 2878 2963 2633 3030 
Q 2388 3097 2138 3097 
Q 1578 3097 1268 2742 
Q 959 2388 959 1747 
Q 959 1106 1268 751 
Q 1578 397 2138 397 
Q 2388 397 2633 464 
Q 2878 531 3122 666 
L 3122 134 
Q 2881 22 2623 -34 
Q 2366 -91 2075 -91 
Q 1284 -91 818 406 
Q 353 903 353 1747 
Q 353 2603 823 3093 
Q 1294 3584 2113 3584 
Q 2378 3584 2631 3529 
Q 2884 3475 3122 3366 
z
" transform="scale(0.015625)"/>
        <path id="DejaVuSans-65" d="M 3597 1894 
L 3597 1613 
L 953 1613 
Q 991 1019 1311 708 
Q 1631 397 2203 397 
Q 2534 397 2845 478 
Q 3156 559 3463 722 
L 3463 178 
Q 3153 47 2828 -22 
Q 2503 -91 2169 -91 
Q 1331 -91 842 396 
Q 353 884 353 1716 
Q 353 2575 817 3079 
Q 1281 3584 2069 3584 
Q 2775 3584 3186 3129 
Q 3597 2675 3597 1894 
z
M 3022 2063 
Q 3016 2534 2758 2815 
Q 2500 3097 2075 3097 
Q 1594 3097 1305 2825 
Q 1016 2553 972 2059 
L 3022 2063 
z
" transform="scale(0.015625)"/>
        <path id="DejaVuSans-64" d="M 2906 2969 
L 2906 4863 
L 3481 4863 
L 3481 0 
L 2906 0 
L 2906 525 
Q 2725 213 2448 61 
Q 2172 -91 1784 -91 
Q 1150 -91 751 415 
Q 353 922 353 1747 
Q 353 2572 751 3078 
Q 1150 3584 1784 3584 
Q 2172 3584 2448 3432 
Q 2725 3281 2906 2969 
z
M 947 1747 
Q 947 1113 1208 752 
Q 1469 391 1925 391 
Q 2381 391 2643 752 
Q 2906 1113 2906 1747 
Q 2906 2381 2643 2742 
Q 2381 3103 1925 3103 
Q 1469 3103 1208 2742 
Q 947 2381 947 1747 
z
" transform="scale(0.015625)"/>
        <path id="DejaVuSans-66" d="M 2375 4863 
L 2375 4384 
L 1825 4384 
Q 1516 4384 1395 4259 
Q 1275 4134 1275 3809 
L 1275 3500 
L 2222 3500 
L 2222 3053 
L 1275 3053 
L 1275 0 
L 697 0 
L 697 3053 
L 147 3053 
L 147 3500 
L 697 3500 
L 697 3744 
Q 697 4328 969 4595 
Q 1241 4863 1831 4863 
L 2375 4863 
z
" transform="scale(0.015625)"/>
       </defs>
       <use xlink:href="#DejaVuSans-6e"/>
       <use xlink:href="#DejaVuSans-6f" x="63.378906"/>
       <use xlink:href="#DejaVuSans-20" x="124.560547"/>
       <use xlink:href="#DejaVuSans-73" x="156.347656"/>
       <use xlink:href="#DejaVuSans-6f" x="208.447266"/>
       <use xlink:href="#DejaVuSans-75" x="269.628906"/>
       <use xlink:href="#DejaVuSans-72" x="333.007812"/>
       <use xlink:href="#DejaVuSans-63" x="371.871094"/>
       <use xlink:href="#DejaVuSans-65" x="426.851562"/>
       <use xlink:href="#DejaVuSans-20" x="488.375"/>
       <use xlink:href="#DejaVuSans-63" x="520.162109"/>
       <use xlink:href="#DejaVuSans-6f" x="575.142578"/>
       <use xlink:href="#DejaVuSans-64" x="636.324219"/>
       <use xlink:href="#DejaVuSans-65" x="699.800781"/>
       <use xlink:href="#DejaVuSans-20" x="761.324219"/>
       <use xlink:href="#DejaVuSans-66" x="793.111328"/>
       <use xlink:href="#DejaVuSans-6f" x="828.316406"/>
       <use xlink:href="#DejaVuSans-75" x="889.498047"/>
       <use xlink:href="#DejaVuSans-6e" x="952.876953"/>
       <use xlink:href="#DejaVuSans-64" x="1016.255859"/>
      </g>
     </g>
    </g>
    <g id="xtick_2">
     <g id="line2d_2">
      <g>
       <use xlink:href="#mfcbcd7b70b" x="174.810918" y="120.46638" style="stroke: #000000; stroke-width: 0.8"/>
      </g>
     </g>
     <g id="text_2">
      <!-- out of gas -->
      <g transform="translate(134.25746 172.312418) rotate(-45) scale(0.11 -0.11)">
       <defs>
        <path id="DejaVuSans-74" d="M 1172 4494 
L 1172 3500 
L 2356 3500 
L 2356 3053 
L 1172 3053 
L 1172 1153 
Q 1172 725 1289 603 
Q 1406 481 1766 481 
L 2356 481 
L 2356 0 
L 1766 0 
Q 1100 0 847 248 
Q 594 497 594 1153 
L 594 3053 
L 172 3053 
L 172 3500 
L 594 3500 
L 594 4494 
L 1172 4494 
z
" transform="scale(0.015625)"/>
        <path id="DejaVuSans-67" d="M 2906 1791 
Q 2906 2416 2648 2759 
Q 2391 3103 1925 3103 
Q 1463 3103 1205 2759 
Q 947 2416 947 1791 
Q 947 1169 1205 825 
Q 1463 481 1925 481 
Q 2391 481 2648 825 
Q 2906 1169 2906 1791 
z
M 3481 434 
Q 3481 -459 3084 -895 
Q 2688 -1331 1869 -1331 
Q 1566 -1331 1297 -1286 
Q 1028 -1241 775 -1147 
L 775 -588 
Q 1028 -725 1275 -790 
Q 1522 -856 1778 -856 
Q 2344 -856 2625 -561 
Q 2906 -266 2906 331 
L 2906 616 
Q 2728 306 2450 153 
Q 2172 0 1784 0 
Q 1141 0 747 490 
Q 353 981 353 1791 
Q 353 2603 747 3093 
Q 1141 3584 1784 3584 
Q 2172 3584 2450 3431 
Q 2728 3278 2906 2969 
L 2906 3500 
L 3481 3500 
L 3481 434 
z
" transform="scale(0.015625)"/>
        <path id="DejaVuSans-61" d="M 2194 1759 
Q 1497 1759 1228 1600 
Q 959 1441 959 1056 
Q 959 750 1161 570 
Q 1363 391 1709 391 
Q 2188 391 2477 730 
Q 2766 1069 2766 1631 
L 2766 1759 
L 2194 1759 
z
M 3341 1997 
L 3341 0 
L 2766 0 
L 2766 531 
Q 2569 213 2275 61 
Q 1981 -91 1556 -91 
Q 1019 -91 701 211 
Q 384 513 384 1019 
Q 384 1609 779 1909 
Q 1175 2209 1959 2209 
L 2766 2209 
L 2766 2266 
Q 2766 2663 2505 2880 
Q 2244 3097 1772 3097 
Q 1472 3097 1187 3025 
Q 903 2953 641 2809 
L 641 3341 
Q 956 3463 1253 3523 
Q 1550 3584 1831 3584 
Q 2591 3584 2966 3190 
Q 3341 2797 3341 1997 
z
" transform="scale(0.015625)"/>
       </defs>
       <use xlink:href="#DejaVuSans-6f"/>
       <use xlink:href="#DejaVuSans-75" x="61.181641"/>
       <use xlink:href="#DejaVuSans-74" x="124.560547"/>
       <use xlink:href="#DejaVuSans-20" x="163.769531"/>
       <use xlink:href="#DejaVuSans-6f" x="195.556641"/>
       <use xlink:href="#DejaVuSans-66" x="256.738281"/>
       <use xlink:href="#DejaVuSans-20" x="291.943359"/>
       <use xlink:href="#DejaVuSans-67" x="323.730469"/>
       <use xlink:href="#DejaVuSans-61" x="387.207031"/>
       <use xlink:href="#DejaVuSans-73" x="448.486328"/>
      </g>
     </g>
    </g>
    <g id="xtick_3">
     <g id="line2d_3">
      <g>
       <use xlink:href="#mfcbcd7b70b" x="245.207799" y="120.46638" style="stroke: #000000; stroke-width: 0.8"/>
      </g>
     </g>
     <g id="text_3">
      <!-- arithmetic underflow or overflow -->
      <g transform="translate(116.098608 260.868151) rotate(-45) scale(0.11 -0.11)">
       <defs>
        <path id="DejaVuSans-69" d="M 603 3500 
L 1178 3500 
L 1178 0 
L 603 0 
L 603 3500 
z
M 603 4863 
L 1178 4863 
L 1178 4134 
L 603 4134 
L 603 4863 
z
" transform="scale(0.015625)"/>
        <path id="DejaVuSans-68" d="M 3513 2113 
L 3513 0 
L 2938 0 
L 2938 2094 
Q 2938 2591 2744 2837 
Q 2550 3084 2163 3084 
Q 1697 3084 1428 2787 
Q 1159 2491 1159 1978 
L 1159 0 
L 581 0 
L 581 4863 
L 1159 4863 
L 1159 2956 
Q 1366 3272 1645 3428 
Q 1925 3584 2291 3584 
Q 2894 3584 3203 3211 
Q 3513 2838 3513 2113 
z
" transform="scale(0.015625)"/>
        <path id="DejaVuSans-6d" d="M 3328 2828 
Q 3544 3216 3844 3400 
Q 4144 3584 4550 3584 
Q 5097 3584 5394 3201 
Q 5691 2819 5691 2113 
L 5691 0 
L 5113 0 
L 5113 2094 
Q 5113 2597 4934 2840 
Q 4756 3084 4391 3084 
Q 3944 3084 3684 2787 
Q 3425 2491 3425 1978 
L 3425 0 
L 2847 0 
L 2847 2094 
Q 2847 2600 2669 2842 
Q 2491 3084 2119 3084 
Q 1678 3084 1418 2786 
Q 1159 2488 1159 1978 
L 1159 0 
L 581 0 
L 581 3500 
L 1159 3500 
L 1159 2956 
Q 1356 3278 1631 3431 
Q 1906 3584 2284 3584 
Q 2666 3584 2933 3390 
Q 3200 3197 3328 2828 
z
" transform="scale(0.015625)"/>
        <path id="DejaVuSans-6c" d="M 603 4863 
L 1178 4863 
L 1178 0 
L 603 0 
L 603 4863 
z
" transform="scale(0.015625)"/>
        <path id="DejaVuSans-77" d="M 269 3500 
L 844 3500 
L 1563 769 
L 2278 3500 
L 2956 3500 
L 3675 769 
L 4391 3500 
L 4966 3500 
L 4050 0 
L 3372 0 
L 2619 2869 
L 1863 0 
L 1184 0 
L 269 3500 
z
" transform="scale(0.015625)"/>
        <path id="DejaVuSans-76" d="M 191 3500 
L 800 3500 
L 1894 563 
L 2988 3500 
L 3597 3500 
L 2284 0 
L 1503 0 
L 191 3500 
z
" transform="scale(0.015625)"/>
       </defs>
       <use xlink:href="#DejaVuSans-61"/>
       <use xlink:href="#DejaVuSans-72" x="61.279297"/>
       <use xlink:href="#DejaVuSans-69" x="102.392578"/>
       <use xlink:href="#DejaVuSans-74" x="130.175781"/>
       <use xlink:href="#DejaVuSans-68" x="169.384766"/>
       <use xlink:href="#DejaVuSans-6d" x="232.763672"/>
       <use xlink:href="#DejaVuSans-65" x="330.175781"/>
       <use xlink:href="#DejaVuSans-74" x="391.699219"/>
       <use xlink:href="#DejaVuSans-69" x="430.908203"/>
       <use xlink:href="#DejaVuSans-63" x="458.691406"/>
       <use xlink:href="#DejaVuSans-20" x="513.671875"/>
       <use xlink:href="#DejaVuSans-75" x="545.458984"/>
       <use xlink:href="#DejaVuSans-6e" x="608.837891"/>
       <use xlink:href="#DejaVuSans-64" x="672.216797"/>
       <use xlink:href="#DejaVuSans-65" x="735.693359"/>
       <use xlink:href="#DejaVuSans-72" x="797.216797"/>
       <use xlink:href="#DejaVuSans-66" x="838.330078"/>
       <use xlink:href="#DejaVuSans-6c" x="873.535156"/>
       <use xlink:href="#DejaVuSans-6f" x="901.318359"/>
       <use xlink:href="#DejaVuSans-77" x="962.5"/>
       <use xlink:href="#DejaVuSans-20" x="1044.287109"/>
       <use xlink:href="#DejaVuSans-6f" x="1076.074219"/>
       <use xlink:href="#DejaVuSans-72" x="1137.255859"/>
       <use xlink:href="#DejaVuSans-20" x="1178.369141"/>
       <use xlink:href="#DejaVuSans-6f" x="1210.15625"/>
       <use xlink:href="#DejaVuSans-76" x="1271.337891"/>
       <use xlink:href="#DejaVuSans-65" x="1330.517578"/>
       <use xlink:href="#DejaVuSans-72" x="1392.041016"/>
       <use xlink:href="#DejaVuSans-66" x="1433.154297"/>
       <use xlink:href="#DejaVuSans-6c" x="1468.359375"/>
       <use xlink:href="#DejaVuSans-6f" x="1496.142578"/>
       <use xlink:href="#DejaVuSans-77" x="1557.324219"/>
      </g>
     </g>
    </g>
    <g id="xtick_4">
     <g id="line2d_4">
      <g>
       <use xlink:href="#mfcbcd7b70b" x="315.604679" y="120.46638" style="stroke: #000000; stroke-width: 0.8"/>
      </g>
     </g>
     <g id="text_4">
      <!-- division or modulo by zero -->
      <g transform="translate(211.062367 236.301273) rotate(-45) scale(0.11 -0.11)">
       <defs>
        <path id="DejaVuSans-62" d="M 3116 1747 
Q 3116 2381 2855 2742 
Q 2594 3103 2138 3103 
Q 1681 3103 1420 2742 
Q 1159 2381 1159 1747 
Q 1159 1113 1420 752 
Q 1681 391 2138 391 
Q 2594 391 2855 752 
Q 3116 1113 3116 1747 
z
M 1159 2969 
Q 1341 3281 1617 3432 
Q 1894 3584 2278 3584 
Q 2916 3584 3314 3078 
Q 3713 2572 3713 1747 
Q 3713 922 3314 415 
Q 2916 -91 2278 -91 
Q 1894 -91 1617 61 
Q 1341 213 1159 525 
L 1159 0 
L 581 0 
L 581 4863 
L 1159 4863 
L 1159 2969 
z
" transform="scale(0.015625)"/>
        <path id="DejaVuSans-79" d="M 2059 -325 
Q 1816 -950 1584 -1140 
Q 1353 -1331 966 -1331 
L 506 -1331 
L 506 -850 
L 844 -850 
Q 1081 -850 1212 -737 
Q 1344 -625 1503 -206 
L 1606 56 
L 191 3500 
L 800 3500 
L 1894 763 
L 2988 3500 
L 3597 3500 
L 2059 -325 
z
" transform="scale(0.015625)"/>
        <path id="DejaVuSans-7a" d="M 353 3500 
L 3084 3500 
L 3084 2975 
L 922 459 
L 3084 459 
L 3084 0 
L 275 0 
L 275 525 
L 2438 3041 
L 353 3041 
L 353 3500 
z
" transform="scale(0.015625)"/>
       </defs>
       <use xlink:href="#DejaVuSans-64"/>
       <use xlink:href="#DejaVuSans-69" x="63.476562"/>
       <use xlink:href="#DejaVuSans-76" x="91.259766"/>
       <use xlink:href="#DejaVuSans-69" x="150.439453"/>
       <use xlink:href="#DejaVuSans-73" x="178.222656"/>
       <use xlink:href="#DejaVuSans-69" x="230.322266"/>
       <use xlink:href="#DejaVuSans-6f" x="258.105469"/>
       <use xlink:href="#DejaVuSans-6e" x="319.287109"/>
       <use xlink:href="#DejaVuSans-20" x="382.666016"/>
       <use xlink:href="#DejaVuSans-6f" x="414.453125"/>
       <use xlink:href="#DejaVuSans-72" x="475.634766"/>
       <use xlink:href="#DejaVuSans-20" x="516.748047"/>
       <use xlink:href="#DejaVuSans-6d" x="548.535156"/>
       <use xlink:href="#DejaVuSans-6f" x="645.947266"/>
       <use xlink:href="#DejaVuSans-64" x="707.128906"/>
       <use xlink:href="#DejaVuSans-75" x="770.605469"/>
       <use xlink:href="#DejaVuSans-6c" x="833.984375"/>
       <use xlink:href="#DejaVuSans-6f" x="861.767578"/>
       <use xlink:href="#DejaVuSans-20" x="922.949219"/>
       <use xlink:href="#DejaVuSans-62" x="954.736328"/>
       <use xlink:href="#DejaVuSans-79" x="1018.212891"/>
       <use xlink:href="#DejaVuSans-20" x="1077.392578"/>
       <use xlink:href="#DejaVuSans-7a" x="1109.179688"/>
       <use xlink:href="#DejaVuSans-65" x="1161.669922"/>
       <use xlink:href="#DejaVuSans-72" x="1223.193359"/>
       <use xlink:href="#DejaVuSans-6f" x="1262.056641"/>
      </g>
     </g>
    </g>
    <g id="xtick_5">
     <g id="line2d_5">
      <g>
       <use xlink:href="#mfcbcd7b70b" x="386.00156" y="120.46638" style="stroke: #000000; stroke-width: 0.8"/>
      </g>
     </g>
     <g id="text_5">
      <!-- stack underflow (0 &lt;=&gt; 2) -->
      <g transform="translate(279.526857 238.233663) rotate(-45) scale(0.11 -0.11)">
       <defs>
        <path id="DejaVuSans-6b" d="M 581 4863 
L 1159 4863 
L 1159 1991 
L 2875 3500 
L 3609 3500 
L 1753 1863 
L 3688 0 
L 2938 0 
L 1159 1709 
L 1159 0 
L 581 0 
L 581 4863 
z
" transform="scale(0.015625)"/>
        <path id="DejaVuSans-28" d="M 1984 4856 
Q 1566 4138 1362 3434 
Q 1159 2731 1159 2009 
Q 1159 1288 1364 580 
Q 1569 -128 1984 -844 
L 1484 -844 
Q 1016 -109 783 600 
Q 550 1309 550 2009 
Q 550 2706 781 3412 
Q 1013 4119 1484 4856 
L 1984 4856 
z
" transform="scale(0.015625)"/>
        <path id="DejaVuSans-30" d="M 2034 4250 
Q 1547 4250 1301 3770 
Q 1056 3291 1056 2328 
Q 1056 1369 1301 889 
Q 1547 409 2034 409 
Q 2525 409 2770 889 
Q 3016 1369 3016 2328 
Q 3016 3291 2770 3770 
Q 2525 4250 2034 4250 
z
M 2034 4750 
Q 2819 4750 3233 4129 
Q 3647 3509 3647 2328 
Q 3647 1150 3233 529 
Q 2819 -91 2034 -91 
Q 1250 -91 836 529 
Q 422 1150 422 2328 
Q 422 3509 836 4129 
Q 1250 4750 2034 4750 
z
" transform="scale(0.015625)"/>
        <path id="DejaVuSans-3c" d="M 4684 3150 
L 1459 2003 
L 4684 863 
L 4684 294 
L 678 1747 
L 678 2266 
L 4684 3719 
L 4684 3150 
z
" transform="scale(0.015625)"/>
        <path id="DejaVuSans-3d" d="M 678 2906 
L 4684 2906 
L 4684 2381 
L 678 2381 
L 678 2906 
z
M 678 1631 
L 4684 1631 
L 4684 1100 
L 678 1100 
L 678 1631 
z
" transform="scale(0.015625)"/>
        <path id="DejaVuSans-3e" d="M 678 3150 
L 678 3719 
L 4684 2266 
L 4684 1747 
L 678 294 
L 678 863 
L 3897 2003 
L 678 3150 
z
" transform="scale(0.015625)"/>
        <path id="DejaVuSans-32" d="M 1228 531 
L 3431 531 
L 3431 0 
L 469 0 
L 469 531 
Q 828 903 1448 1529 
Q 2069 2156 2228 2338 
Q 2531 2678 2651 2914 
Q 2772 3150 2772 3378 
Q 2772 3750 2511 3984 
Q 2250 4219 1831 4219 
Q 1534 4219 1204 4116 
Q 875 4013 500 3803 
L 500 4441 
Q 881 4594 1212 4672 
Q 1544 4750 1819 4750 
Q 2544 4750 2975 4387 
Q 3406 4025 3406 3419 
Q 3406 3131 3298 2873 
Q 3191 2616 2906 2266 
Q 2828 2175 2409 1742 
Q 1991 1309 1228 531 
z
" transform="scale(0.015625)"/>
        <path id="DejaVuSans-29" d="M 513 4856 
L 1013 4856 
Q 1481 4119 1714 3412 
Q 1947 2706 1947 2009 
Q 1947 1309 1714 600 
Q 1481 -109 1013 -844 
L 513 -844 
Q 928 -128 1133 580 
Q 1338 1288 1338 2009 
Q 1338 2731 1133 3434 
Q 928 4138 513 4856 
z
" transform="scale(0.015625)"/>
       </defs>
       <use xlink:href="#DejaVuSans-73"/>
       <use xlink:href="#DejaVuSans-74" x="52.099609"/>
       <use xlink:href="#DejaVuSans-61" x="91.308594"/>
       <use xlink:href="#DejaVuSans-63" x="152.587891"/>
       <use xlink:href="#DejaVuSans-6b" x="207.568359"/>
       <use xlink:href="#DejaVuSans-20" x="265.478516"/>
       <use xlink:href="#DejaVuSans-75" x="297.265625"/>
       <use xlink:href="#DejaVuSans-6e" x="360.644531"/>
       <use xlink:href="#DejaVuSans-64" x="424.023438"/>
       <use xlink:href="#DejaVuSans-65" x="487.5"/>
       <use xlink:href="#DejaVuSans-72" x="549.023438"/>
       <use xlink:href="#DejaVuSans-66" x="590.136719"/>
       <use xlink:href="#DejaVuSans-6c" x="625.341797"/>
       <use xlink:href="#DejaVuSans-6f" x="653.125"/>
       <use xlink:href="#DejaVuSans-77" x="714.306641"/>
       <use xlink:href="#DejaVuSans-20" x="796.09375"/>
       <use xlink:href="#DejaVuSans-28" x="827.880859"/>
       <use xlink:href="#DejaVuSans-30" x="866.894531"/>
       <use xlink:href="#DejaVuSans-20" x="930.517578"/>
       <use xlink:href="#DejaVuSans-3c" x="962.304688"/>
       <use xlink:href="#DejaVuSans-3d" x="1046.09375"/>
       <use xlink:href="#DejaVuSans-3e" x="1129.882812"/>
       <use xlink:href="#DejaVuSans-20" x="1213.671875"/>
       <use xlink:href="#DejaVuSans-32" x="1245.458984"/>
       <use xlink:href="#DejaVuSans-29" x="1309.082031"/>
      </g>
     </g>
    </g>
    <g id="text_6">
     <!-- failure_reason -->
     <g transform="translate(210.000767 274.084206) scale(0.1 -0.1)">
      <defs>
       <path id="DejaVuSans-5f" d="M 3263 -1063 
L 3263 -1509 
L -63 -1509 
L -63 -1063 
L 3263 -1063 
z
" transform="scale(0.015625)"/>
      </defs>
      <use xlink:href="#DejaVuSans-66"/>
      <use xlink:href="#DejaVuSans-61" x="35.205078"/>
      <use xlink:href="#DejaVuSans-69" x="96.484375"/>
      <use xlink:href="#DejaVuSans-6c" x="124.267578"/>
      <use xlink:href="#DejaVuSans-75" x="152.050781"/>
      <use xlink:href="#DejaVuSans-72" x="215.429688"/>
      <use xlink:href="#DejaVuSans-65" x="254.292969"/>
      <use xlink:href="#DejaVuSans-5f" x="315.816406"/>
      <use xlink:href="#DejaVuSans-72" x="365.816406"/>
      <use xlink:href="#DejaVuSans-65" x="404.679688"/>
      <use xlink:href="#DejaVuSans-61" x="466.203125"/>
      <use xlink:href="#DejaVuSans-73" x="527.482422"/>
      <use xlink:href="#DejaVuSans-6f" x="579.582031"/>
      <use xlink:href="#DejaVuSans-6e" x="640.763672"/>
     </g>
    </g>
   </g>
   <g id="matplotlib.axis_2">
    <g id="ytick_1">
     <g id="line2d_6">
      <path d="M 69.215597 120.46638 
L 421.2 120.46638 
" clip-path="url(#p0ece1748b2)" style="fill: none; stroke-dasharray: 2.96,1.28; stroke-dashoffset: 0; stroke: #b0b0b0; stroke-opacity: 0.7; stroke-width: 0.8"/>
     </g>
     <g id="line2d_7">
      <defs>
       <path id="m07a8acf66c" d="M 0 0 
L -3.5 0 
" style="stroke: #000000; stroke-width: 0.8"/>
      </defs>
      <g>
       <use xlink:href="#m07a8acf66c" x="69.215597" y="120.46638" style="stroke: #000000; stroke-width: 0.8"/>
      </g>
     </g>
     <g id="text_7">
      <!-- 0 -->
      <g transform="translate(55.216847 124.645521) scale(0.11 -0.11)">
       <use xlink:href="#DejaVuSans-30"/>
      </g>
     </g>
    </g>
    <g id="ytick_2">
     <g id="line2d_8">
      <path d="M 69.215597 82.718121 
L 421.2 82.718121 
" clip-path="url(#p0ece1748b2)" style="fill: none; stroke-dasharray: 2.96,1.28; stroke-dashoffset: 0; stroke: #b0b0b0; stroke-opacity: 0.7; stroke-width: 0.8"/>
     </g>
     <g id="line2d_9">
      <g>
       <use xlink:href="#m07a8acf66c" x="69.215597" y="82.718121" style="stroke: #000000; stroke-width: 0.8"/>
      </g>
     </g>
     <g id="text_8">
      <!-- 2000 -->
      <g transform="translate(34.220597 86.897261) scale(0.11 -0.11)">
       <use xlink:href="#DejaVuSans-32"/>
       <use xlink:href="#DejaVuSans-30" x="63.623047"/>
       <use xlink:href="#DejaVuSans-30" x="127.246094"/>
       <use xlink:href="#DejaVuSans-30" x="190.869141"/>
      </g>
     </g>
    </g>
    <g id="ytick_3">
     <g id="line2d_10">
      <path d="M 69.215597 44.969862 
L 421.2 44.969862 
" clip-path="url(#p0ece1748b2)" style="fill: none; stroke-dasharray: 2.96,1.28; stroke-dashoffset: 0; stroke: #b0b0b0; stroke-opacity: 0.7; stroke-width: 0.8"/>
     </g>
     <g id="line2d_11">
      <g>
       <use xlink:href="#m07a8acf66c" x="69.215597" y="44.969862" style="stroke: #000000; stroke-width: 0.8"/>
      </g>
     </g>
     <g id="text_9">
      <!-- 4000 -->
      <g transform="translate(34.220597 49.149002) scale(0.11 -0.11)">
       <defs>
        <path id="DejaVuSans-34" d="M 2419 4116 
L 825 1625 
L 2419 1625 
L 2419 4116 
z
M 2253 4666 
L 3047 4666 
L 3047 1625 
L 3713 1625 
L 3713 1100 
L 3047 1100 
L 3047 0 
L 2419 0 
L 2419 1100 
L 313 1100 
L 313 1709 
L 2253 4666 
z
" transform="scale(0.015625)"/>
       </defs>
       <use xlink:href="#DejaVuSans-34"/>
       <use xlink:href="#DejaVuSans-30" x="63.623047"/>
       <use xlink:href="#DejaVuSans-30" x="127.246094"/>
       <use xlink:href="#DejaVuSans-30" x="190.869141"/>
      </g>
     </g>
    </g>
    <g id="text_10">
     <!-- Count -->
     <g transform="translate(27.724972 91.851315) rotate(-90) scale(0.12 -0.12)">
      <defs>
       <path id="DejaVuSans-43" d="M 4122 4306 
L 4122 3641 
Q 3803 3938 3442 4084 
Q 3081 4231 2675 4231 
Q 1875 4231 1450 3742 
Q 1025 3253 1025 2328 
Q 1025 1406 1450 917 
Q 1875 428 2675 428 
Q 3081 428 3442 575 
Q 3803 722 4122 1019 
L 4122 359 
Q 3791 134 3420 21 
Q 3050 -91 2638 -91 
Q 1578 -91 968 557 
Q 359 1206 359 2328 
Q 359 3453 968 4101 
Q 1578 4750 2638 4750 
Q 3056 4750 3426 4639 
Q 3797 4528 4122 4306 
z
" transform="scale(0.015625)"/>
      </defs>
      <use xlink:href="#DejaVuSans-43"/>
      <use xlink:href="#DejaVuSans-6f" x="69.824219"/>
      <use xlink:href="#DejaVuSans-75" x="131.005859"/>
      <use xlink:href="#DejaVuSans-6e" x="194.384766"/>
      <use xlink:href="#DejaVuSans-74" x="257.763672"/>
     </g>
    </g>
   </g>
   <g id="patch_8">
    <path d="M 69.215597 120.46638 
L 69.215597 27.6 
" style="fill: none; stroke: #000000; stroke-width: 0.8; stroke-linejoin: miter; stroke-linecap: square"/>
   </g>
   <g id="patch_9">
    <path d="M 69.215597 120.46638 
L 421.2 120.46638 
" style="fill: none; stroke: #000000; stroke-width: 0.8; stroke-linejoin: miter; stroke-linecap: square"/>
   </g>
   <g id="text_11">
    <!-- Failure Reason Distribution for Empty Failure Invariants -->
    <g transform="translate(52.380767 21.6) scale(0.14 -0.14)">
     <defs>
      <path id="DejaVuSans-46" d="M 628 4666 
L 3309 4666 
L 3309 4134 
L 1259 4134 
L 1259 2759 
L 3109 2759 
L 3109 2228 
L 1259 2228 
L 1259 0 
L 628 0 
L 628 4666 
z
" transform="scale(0.015625)"/>
      <path id="DejaVuSans-52" d="M 2841 2188 
Q 3044 2119 3236 1894 
Q 3428 1669 3622 1275 
L 4263 0 
L 3584 0 
L 2988 1197 
Q 2756 1666 2539 1819 
Q 2322 1972 1947 1972 
L 1259 1972 
L 1259 0 
L 628 0 
L 628 4666 
L 2053 4666 
Q 2853 4666 3247 4331 
Q 3641 3997 3641 3322 
Q 3641 2881 3436 2590 
Q 3231 2300 2841 2188 
z
M 1259 4147 
L 1259 2491 
L 2053 2491 
Q 2509 2491 2742 2702 
Q 2975 2913 2975 3322 
Q 2975 3731 2742 3939 
Q 2509 4147 2053 4147 
L 1259 4147 
z
" transform="scale(0.015625)"/>
      <path id="DejaVuSans-44" d="M 1259 4147 
L 1259 519 
L 2022 519 
Q 2988 519 3436 956 
Q 3884 1394 3884 2338 
Q 3884 3275 3436 3711 
Q 2988 4147 2022 4147 
L 1259 4147 
z
M 628 4666 
L 1925 4666 
Q 3281 4666 3915 4102 
Q 4550 3538 4550 2338 
Q 4550 1131 3912 565 
Q 3275 0 1925 0 
L 628 0 
L 628 4666 
z
" transform="scale(0.015625)"/>
      <path id="DejaVuSans-45" d="M 628 4666 
L 3578 4666 
L 3578 4134 
L 1259 4134 
L 1259 2753 
L 3481 2753 
L 3481 2222 
L 1259 2222 
L 1259 531 
L 3634 531 
L 3634 0 
L 628 0 
L 628 4666 
z
" transform="scale(0.015625)"/>
      <path id="DejaVuSans-70" d="M 1159 525 
L 1159 -1331 
L 581 -1331 
L 581 3500 
L 1159 3500 
L 1159 2969 
Q 1341 3281 1617 3432 
Q 1894 3584 2278 3584 
Q 2916 3584 3314 3078 
Q 3713 2572 3713 1747 
Q 3713 922 3314 415 
Q 2916 -91 2278 -91 
Q 1894 -91 1617 61 
Q 1341 213 1159 525 
z
M 3116 1747 
Q 3116 2381 2855 2742 
Q 2594 3103 2138 3103 
Q 1681 3103 1420 2742 
Q 1159 2381 1159 1747 
Q 1159 1113 1420 752 
Q 1681 391 2138 391 
Q 2594 391 2855 752 
Q 3116 1113 3116 1747 
z
" transform="scale(0.015625)"/>
      <path id="DejaVuSans-49" d="M 628 4666 
L 1259 4666 
L 1259 0 
L 628 0 
L 628 4666 
z
" transform="scale(0.015625)"/>
     </defs>
     <use xlink:href="#DejaVuSans-46"/>
     <use xlink:href="#DejaVuSans-61" x="48.394531"/>
     <use xlink:href="#DejaVuSans-69" x="109.673828"/>
     <use xlink:href="#DejaVuSans-6c" x="137.457031"/>
     <use xlink:href="#DejaVuSans-75" x="165.240234"/>
     <use xlink:href="#DejaVuSans-72" x="228.619141"/>
     <use xlink:href="#DejaVuSans-65" x="267.482422"/>
     <use xlink:href="#DejaVuSans-20" x="329.005859"/>
     <use xlink:href="#DejaVuSans-52" x="360.792969"/>
     <use xlink:href="#DejaVuSans-65" x="425.775391"/>
     <use xlink:href="#DejaVuSans-61" x="487.298828"/>
     <use xlink:href="#DejaVuSans-73" x="548.578125"/>
     <use xlink:href="#DejaVuSans-6f" x="600.677734"/>
     <use xlink:href="#DejaVuSans-6e" x="661.859375"/>
     <use xlink:href="#DejaVuSans-20" x="725.238281"/>
     <use xlink:href="#DejaVuSans-44" x="757.025391"/>
     <use xlink:href="#DejaVuSans-69" x="834.027344"/>
     <use xlink:href="#DejaVuSans-73" x="861.810547"/>
     <use xlink:href="#DejaVuSans-74" x="913.910156"/>
     <use xlink:href="#DejaVuSans-72" x="953.119141"/>
     <use xlink:href="#DejaVuSans-69" x="994.232422"/>
     <use xlink:href="#DejaVuSans-62" x="1022.015625"/>
     <use xlink:href="#DejaVuSans-75" x="1085.492188"/>
     <use xlink:href="#DejaVuSans-74" x="1148.871094"/>
     <use xlink:href="#DejaVuSans-69" x="1188.080078"/>
     <use xlink:href="#DejaVuSans-6f" x="1215.863281"/>
     <use xlink:href="#DejaVuSans-6e" x="1277.044922"/>
     <use xlink:href="#DejaVuSans-20" x="1340.423828"/>
     <use xlink:href="#DejaVuSans-66" x="1372.210938"/>
     <use xlink:href="#DejaVuSans-6f" x="1407.416016"/>
     <use xlink:href="#DejaVuSans-72" x="1468.597656"/>
     <use xlink:href="#DejaVuSans-20" x="1509.710938"/>
     <use xlink:href="#DejaVuSans-45" x="1541.498047"/>
     <use xlink:href="#DejaVuSans-6d" x="1604.681641"/>
     <use xlink:href="#DejaVuSans-70" x="1702.09375"/>
     <use xlink:href="#DejaVuSans-74" x="1765.570312"/>
     <use xlink:href="#DejaVuSans-79" x="1804.779297"/>
     <use xlink:href="#DejaVuSans-20" x="1863.958984"/>
     <use xlink:href="#DejaVuSans-46" x="1895.746094"/>
     <use xlink:href="#DejaVuSans-61" x="1944.140625"/>
     <use xlink:href="#DejaVuSans-69" x="2005.419922"/>
     <use xlink:href="#DejaVuSans-6c" x="2033.203125"/>
     <use xlink:href="#DejaVuSans-75" x="2060.986328"/>
     <use xlink:href="#DejaVuSans-72" x="2124.365234"/>
     <use xlink:href="#DejaVuSans-65" x="2163.228516"/>
     <use xlink:href="#DejaVuSans-20" x="2224.751953"/>
     <use xlink:href="#DejaVuSans-49" x="2256.539062"/>
     <use xlink:href="#DejaVuSans-6e" x="2286.03125"/>
     <use xlink:href="#DejaVuSans-76" x="2349.410156"/>
     <use xlink:href="#DejaVuSans-61" x="2408.589844"/>
     <use xlink:href="#DejaVuSans-72" x="2469.869141"/>
     <use xlink:href="#DejaVuSans-69" x="2510.982422"/>
     <use xlink:href="#DejaVuSans-61" x="2538.765625"/>
     <use xlink:href="#DejaVuSans-6e" x="2600.044922"/>
     <use xlink:href="#DejaVuSans-74" x="2663.423828"/>
     <use xlink:href="#DejaVuSans-73" x="2702.632812"/>
    </g>
   </g>
  </g>
 </g>
 <defs>
  <clipPath id="p0ece1748b2">
   <rect x="69.215597" y="27.6" width="351.984403" height="92.86638"/>
  </clipPath>
 </defs>
</svg>
