<?xml version="1.0" encoding="utf-8" standalone="no"?>
<!DOCTYPE svg PUBLIC "-//W3C//DTD SVG 1.1//EN"
  "http://www.w3.org/Graphics/SVG/1.1/DTD/svg11.dtd">
<svg xmlns:xlink="http://www.w3.org/1999/xlink" width="432pt" height="288pt" viewBox="0 0 432 288" xmlns="http://www.w3.org/2000/svg" version="1.1">
 <metadata>
  <rdf:RDF xmlns:dc="http://purl.org/dc/elements/1.1/" xmlns:cc="http://creativecommons.org/ns#" xmlns:rdf="http://www.w3.org/1999/02/22-rdf-syntax-ns#">
   <cc:Work>
    <dc:type rdf:resource="http://purl.org/dc/dcmitype/StillImage"/>
    <dc:date>2025-05-01T11:14:25.826377</dc:date>
    <dc:format>image/svg+xml</dc:format>
    <dc:creator>
     <cc:Agent>
      <dc:title>Matplotlib v3.9.4, https://matplotlib.org/</dc:title>
     </cc:Agent>
    </dc:creator>
   </cc:Work>
  </rdf:RDF>
 </metadata>
 <defs>
  <style type="text/css">*{stroke-linejoin: round; stroke-linecap: butt}</style>
 </defs>
 <g id="figure_1">
  <g id="patch_1">
   <path d="M 0 288 
L 432 288 
L 432 0 
L 0 0 
z
" style="fill: #ffffff"/>
  </g>
  <g id="axes_1">
   <g id="patch_2">
    <path d="M 61.74 133.687786 
L 419.04 133.687786 
L 419.04 29.04 
L 61.74 29.04 
z
" style="fill: #ffffff"/>
   </g>
   <g id="matplotlib.axis_1">
    <g id="xtick_1">
     <g id="line2d_1">
      <path d="M 97.47 133.687786 
L 97.47 29.04 
" clip-path="url(#pab40aeb9f0)" style="fill: none; stroke: #cccccc; stroke-linecap: round"/>
     </g>
     <g id="text_1">
      <!-- no source code found -->
      <g style="fill: #262626" transform="translate(21.118709 223.560636) rotate(-45) scale(0.11 -0.11)">
       <defs>
        <path id="ArialMT-6e" d="M 422 0 
L 422 3319 
L 928 3319 
L 928 2847 
Q 1294 3394 1984 3394 
Q 2284 3394 2536 3286 
Q 2788 3178 2913 3003 
Q 3038 2828 3088 2588 
Q 3119 2431 3119 2041 
L 3119 0 
L 2556 0 
L 2556 2019 
Q 2556 2363 2490 2533 
Q 2425 2703 2258 2804 
Q 2091 2906 1866 2906 
Q 1506 2906 1245 2678 
Q 984 2450 984 1813 
L 984 0 
L 422 0 
z
" transform="scale(0.015625)"/>
        <path id="ArialMT-6f" d="M 213 1659 
Q 213 2581 725 3025 
Q 1153 3394 1769 3394 
Q 2453 3394 2887 2945 
Q 3322 2497 3322 1706 
Q 3322 1066 3130 698 
Q 2938 331 2570 128 
Q 2203 -75 1769 -75 
Q 1072 -75 642 372 
Q 213 819 213 1659 
z
M 791 1659 
Q 791 1022 1069 705 
Q 1347 388 1769 388 
Q 2188 388 2466 706 
Q 2744 1025 2744 1678 
Q 2744 2294 2464 2611 
Q 2184 2928 1769 2928 
Q 1347 2928 1069 2612 
Q 791 2297 791 1659 
z
" transform="scale(0.015625)"/>
        <path id="ArialMT-20" transform="scale(0.015625)"/>
        <path id="ArialMT-73" d="M 197 991 
L 753 1078 
Q 800 744 1014 566 
Q 1228 388 1613 388 
Q 2000 388 2187 545 
Q 2375 703 2375 916 
Q 2375 1106 2209 1216 
Q 2094 1291 1634 1406 
Q 1016 1563 777 1677 
Q 538 1791 414 1992 
Q 291 2194 291 2438 
Q 291 2659 392 2848 
Q 494 3038 669 3163 
Q 800 3259 1026 3326 
Q 1253 3394 1513 3394 
Q 1903 3394 2198 3281 
Q 2494 3169 2634 2976 
Q 2775 2784 2828 2463 
L 2278 2388 
Q 2241 2644 2061 2787 
Q 1881 2931 1553 2931 
Q 1166 2931 1000 2803 
Q 834 2675 834 2503 
Q 834 2394 903 2306 
Q 972 2216 1119 2156 
Q 1203 2125 1616 2013 
Q 2213 1853 2448 1751 
Q 2684 1650 2818 1456 
Q 2953 1263 2953 975 
Q 2953 694 2789 445 
Q 2625 197 2315 61 
Q 2006 -75 1616 -75 
Q 969 -75 630 194 
Q 291 463 197 991 
z
" transform="scale(0.015625)"/>
        <path id="ArialMT-75" d="M 2597 0 
L 2597 488 
Q 2209 -75 1544 -75 
Q 1250 -75 995 37 
Q 741 150 617 320 
Q 494 491 444 738 
Q 409 903 409 1263 
L 409 3319 
L 972 3319 
L 972 1478 
Q 972 1038 1006 884 
Q 1059 663 1231 536 
Q 1403 409 1656 409 
Q 1909 409 2131 539 
Q 2353 669 2445 892 
Q 2538 1116 2538 1541 
L 2538 3319 
L 3100 3319 
L 3100 0 
L 2597 0 
z
" transform="scale(0.015625)"/>
        <path id="ArialMT-72" d="M 416 0 
L 416 3319 
L 922 3319 
L 922 2816 
Q 1116 3169 1280 3281 
Q 1444 3394 1641 3394 
Q 1925 3394 2219 3213 
L 2025 2691 
Q 1819 2813 1613 2813 
Q 1428 2813 1281 2702 
Q 1134 2591 1072 2394 
Q 978 2094 978 1738 
L 978 0 
L 416 0 
z
" transform="scale(0.015625)"/>
        <path id="ArialMT-63" d="M 2588 1216 
L 3141 1144 
Q 3050 572 2676 248 
Q 2303 -75 1759 -75 
Q 1078 -75 664 370 
Q 250 816 250 1647 
Q 250 2184 428 2587 
Q 606 2991 970 3192 
Q 1334 3394 1763 3394 
Q 2303 3394 2647 3120 
Q 2991 2847 3088 2344 
L 2541 2259 
Q 2463 2594 2264 2762 
Q 2066 2931 1784 2931 
Q 1359 2931 1093 2626 
Q 828 2322 828 1663 
Q 828 994 1084 691 
Q 1341 388 1753 388 
Q 2084 388 2306 591 
Q 2528 794 2588 1216 
z
" transform="scale(0.015625)"/>
        <path id="ArialMT-65" d="M 2694 1069 
L 3275 997 
Q 3138 488 2766 206 
Q 2394 -75 1816 -75 
Q 1088 -75 661 373 
Q 234 822 234 1631 
Q 234 2469 665 2931 
Q 1097 3394 1784 3394 
Q 2450 3394 2872 2941 
Q 3294 2488 3294 1666 
Q 3294 1616 3291 1516 
L 816 1516 
Q 847 969 1125 678 
Q 1403 388 1819 388 
Q 2128 388 2347 550 
Q 2566 713 2694 1069 
z
M 847 1978 
L 2700 1978 
Q 2663 2397 2488 2606 
Q 2219 2931 1791 2931 
Q 1403 2931 1139 2672 
Q 875 2413 847 1978 
z
" transform="scale(0.015625)"/>
        <path id="ArialMT-64" d="M 2575 0 
L 2575 419 
Q 2259 -75 1647 -75 
Q 1250 -75 917 144 
Q 584 363 401 755 
Q 219 1147 219 1656 
Q 219 2153 384 2558 
Q 550 2963 881 3178 
Q 1213 3394 1622 3394 
Q 1922 3394 2156 3267 
Q 2391 3141 2538 2938 
L 2538 4581 
L 3097 4581 
L 3097 0 
L 2575 0 
z
M 797 1656 
Q 797 1019 1065 703 
Q 1334 388 1700 388 
Q 2069 388 2326 689 
Q 2584 991 2584 1609 
Q 2584 2291 2321 2609 
Q 2059 2928 1675 2928 
Q 1300 2928 1048 2622 
Q 797 2316 797 1656 
z
" transform="scale(0.015625)"/>
        <path id="ArialMT-66" d="M 556 0 
L 556 2881 
L 59 2881 
L 59 3319 
L 556 3319 
L 556 3672 
Q 556 4006 616 4169 
Q 697 4388 901 4523 
Q 1106 4659 1475 4659 
Q 1713 4659 2000 4603 
L 1916 4113 
Q 1741 4144 1584 4144 
Q 1328 4144 1222 4034 
Q 1116 3925 1116 3625 
L 1116 3319 
L 1763 3319 
L 1763 2881 
L 1116 2881 
L 1116 0 
L 556 0 
z
" transform="scale(0.015625)"/>
       </defs>
       <use xlink:href="#ArialMT-6e"/>
       <use xlink:href="#ArialMT-6f" x="55.615234"/>
       <use xlink:href="#ArialMT-20" x="111.230469"/>
       <use xlink:href="#ArialMT-73" x="139.013672"/>
       <use xlink:href="#ArialMT-6f" x="189.013672"/>
       <use xlink:href="#ArialMT-75" x="244.628906"/>
       <use xlink:href="#ArialMT-72" x="300.244141"/>
       <use xlink:href="#ArialMT-63" x="333.544922"/>
       <use xlink:href="#ArialMT-65" x="383.544922"/>
       <use xlink:href="#ArialMT-20" x="439.160156"/>
       <use xlink:href="#ArialMT-63" x="466.943359"/>
       <use xlink:href="#ArialMT-6f" x="516.943359"/>
       <use xlink:href="#ArialMT-64" x="572.558594"/>
       <use xlink:href="#ArialMT-65" x="628.173828"/>
       <use xlink:href="#ArialMT-20" x="683.789062"/>
       <use xlink:href="#ArialMT-66" x="711.572266"/>
       <use xlink:href="#ArialMT-6f" x="739.355469"/>
       <use xlink:href="#ArialMT-75" x="794.970703"/>
       <use xlink:href="#ArialMT-6e" x="850.585938"/>
       <use xlink:href="#ArialMT-64" x="906.201172"/>
      </g>
     </g>
    </g>
    <g id="xtick_2">
     <g id="line2d_2">
      <path d="M 168.93 133.687786 
L 168.93 29.04 
" clip-path="url(#pab40aeb9f0)" style="fill: none; stroke: #cccccc; stroke-linecap: round"/>
     </g>
     <g id="text_2">
      <!-- out of gas -->
      <g style="fill: #262626" transform="translate(133.133382 183.009609) rotate(-45) scale(0.11 -0.11)">
       <defs>
        <path id="ArialMT-74" d="M 1650 503 
L 1731 6 
Q 1494 -44 1306 -44 
Q 1000 -44 831 53 
Q 663 150 594 308 
Q 525 466 525 972 
L 525 2881 
L 113 2881 
L 113 3319 
L 525 3319 
L 525 4141 
L 1084 4478 
L 1084 3319 
L 1650 3319 
L 1650 2881 
L 1084 2881 
L 1084 941 
Q 1084 700 1114 631 
Q 1144 563 1211 522 
Q 1278 481 1403 481 
Q 1497 481 1650 503 
z
" transform="scale(0.015625)"/>
        <path id="ArialMT-67" d="M 319 -275 
L 866 -356 
Q 900 -609 1056 -725 
Q 1266 -881 1628 -881 
Q 2019 -881 2231 -725 
Q 2444 -569 2519 -288 
Q 2563 -116 2559 434 
Q 2191 0 1641 0 
Q 956 0 581 494 
Q 206 988 206 1678 
Q 206 2153 378 2554 
Q 550 2956 876 3175 
Q 1203 3394 1644 3394 
Q 2231 3394 2613 2919 
L 2613 3319 
L 3131 3319 
L 3131 450 
Q 3131 -325 2973 -648 
Q 2816 -972 2473 -1159 
Q 2131 -1347 1631 -1347 
Q 1038 -1347 672 -1080 
Q 306 -813 319 -275 
z
M 784 1719 
Q 784 1066 1043 766 
Q 1303 466 1694 466 
Q 2081 466 2343 764 
Q 2606 1063 2606 1700 
Q 2606 2309 2336 2618 
Q 2066 2928 1684 2928 
Q 1309 2928 1046 2623 
Q 784 2319 784 1719 
z
" transform="scale(0.015625)"/>
        <path id="ArialMT-61" d="M 2588 409 
Q 2275 144 1986 34 
Q 1697 -75 1366 -75 
Q 819 -75 525 192 
Q 231 459 231 875 
Q 231 1119 342 1320 
Q 453 1522 633 1644 
Q 813 1766 1038 1828 
Q 1203 1872 1538 1913 
Q 2219 1994 2541 2106 
Q 2544 2222 2544 2253 
Q 2544 2597 2384 2738 
Q 2169 2928 1744 2928 
Q 1347 2928 1158 2789 
Q 969 2650 878 2297 
L 328 2372 
Q 403 2725 575 2942 
Q 747 3159 1072 3276 
Q 1397 3394 1825 3394 
Q 2250 3394 2515 3294 
Q 2781 3194 2906 3042 
Q 3031 2891 3081 2659 
Q 3109 2516 3109 2141 
L 3109 1391 
Q 3109 606 3145 398 
Q 3181 191 3288 0 
L 2700 0 
Q 2613 175 2588 409 
z
M 2541 1666 
Q 2234 1541 1622 1453 
Q 1275 1403 1131 1340 
Q 988 1278 909 1158 
Q 831 1038 831 891 
Q 831 666 1001 516 
Q 1172 366 1500 366 
Q 1825 366 2078 508 
Q 2331 650 2450 897 
Q 2541 1088 2541 1459 
L 2541 1666 
z
" transform="scale(0.015625)"/>
       </defs>
       <use xlink:href="#ArialMT-6f"/>
       <use xlink:href="#ArialMT-75" x="55.615234"/>
       <use xlink:href="#ArialMT-74" x="111.230469"/>
       <use xlink:href="#ArialMT-20" x="139.013672"/>
       <use xlink:href="#ArialMT-6f" x="166.796875"/>
       <use xlink:href="#ArialMT-66" x="222.412109"/>
       <use xlink:href="#ArialMT-20" x="250.195312"/>
       <use xlink:href="#ArialMT-67" x="277.978516"/>
       <use xlink:href="#ArialMT-61" x="333.59375"/>
       <use xlink:href="#ArialMT-73" x="389.208984"/>
      </g>
     </g>
    </g>
    <g id="xtick_3">
     <g id="line2d_3">
      <path d="M 240.39 133.687786 
L 240.39 29.04 
" clip-path="url(#pab40aeb9f0)" style="fill: none; stroke: #cccccc; stroke-linecap: round"/>
     </g>
     <g id="text_3">
      <!-- arithmetic underflow or overflow -->
      <g style="fill: #262626" transform="translate(129.049077 258.550268) rotate(-45) scale(0.11 -0.11)">
       <defs>
        <path id="ArialMT-69" d="M 425 3934 
L 425 4581 
L 988 4581 
L 988 3934 
L 425 3934 
z
M 425 0 
L 425 3319 
L 988 3319 
L 988 0 
L 425 0 
z
" transform="scale(0.015625)"/>
        <path id="ArialMT-68" d="M 422 0 
L 422 4581 
L 984 4581 
L 984 2938 
Q 1378 3394 1978 3394 
Q 2347 3394 2619 3248 
Q 2891 3103 3008 2847 
Q 3125 2591 3125 2103 
L 3125 0 
L 2563 0 
L 2563 2103 
Q 2563 2525 2380 2717 
Q 2197 2909 1863 2909 
Q 1613 2909 1392 2779 
Q 1172 2650 1078 2428 
Q 984 2206 984 1816 
L 984 0 
L 422 0 
z
" transform="scale(0.015625)"/>
        <path id="ArialMT-6d" d="M 422 0 
L 422 3319 
L 925 3319 
L 925 2853 
Q 1081 3097 1340 3245 
Q 1600 3394 1931 3394 
Q 2300 3394 2536 3241 
Q 2772 3088 2869 2813 
Q 3263 3394 3894 3394 
Q 4388 3394 4653 3120 
Q 4919 2847 4919 2278 
L 4919 0 
L 4359 0 
L 4359 2091 
Q 4359 2428 4304 2576 
Q 4250 2725 4106 2815 
Q 3963 2906 3769 2906 
Q 3419 2906 3187 2673 
Q 2956 2441 2956 1928 
L 2956 0 
L 2394 0 
L 2394 2156 
Q 2394 2531 2256 2718 
Q 2119 2906 1806 2906 
Q 1569 2906 1367 2781 
Q 1166 2656 1075 2415 
Q 984 2175 984 1722 
L 984 0 
L 422 0 
z
" transform="scale(0.015625)"/>
        <path id="ArialMT-6c" d="M 409 0 
L 409 4581 
L 972 4581 
L 972 0 
L 409 0 
z
" transform="scale(0.015625)"/>
        <path id="ArialMT-77" d="M 1034 0 
L 19 3319 
L 600 3319 
L 1128 1403 
L 1325 691 
Q 1338 744 1497 1375 
L 2025 3319 
L 2603 3319 
L 3100 1394 
L 3266 759 
L 3456 1400 
L 4025 3319 
L 4572 3319 
L 3534 0 
L 2950 0 
L 2422 1988 
L 2294 2553 
L 1622 0 
L 1034 0 
z
" transform="scale(0.015625)"/>
        <path id="ArialMT-76" d="M 1344 0 
L 81 3319 
L 675 3319 
L 1388 1331 
Q 1503 1009 1600 663 
Q 1675 925 1809 1294 
L 2547 3319 
L 3125 3319 
L 1869 0 
L 1344 0 
z
" transform="scale(0.015625)"/>
       </defs>
       <use xlink:href="#ArialMT-61"/>
       <use xlink:href="#ArialMT-72" x="55.615234"/>
       <use xlink:href="#ArialMT-69" x="88.916016"/>
       <use xlink:href="#ArialMT-74" x="111.132812"/>
       <use xlink:href="#ArialMT-68" x="138.916016"/>
       <use xlink:href="#ArialMT-6d" x="194.53125"/>
       <use xlink:href="#ArialMT-65" x="277.832031"/>
       <use xlink:href="#ArialMT-74" x="333.447266"/>
       <use xlink:href="#ArialMT-69" x="361.230469"/>
       <use xlink:href="#ArialMT-63" x="383.447266"/>
       <use xlink:href="#ArialMT-20" x="433.447266"/>
       <use xlink:href="#ArialMT-75" x="461.230469"/>
       <use xlink:href="#ArialMT-6e" x="516.845703"/>
       <use xlink:href="#ArialMT-64" x="572.460938"/>
       <use xlink:href="#ArialMT-65" x="628.076172"/>
       <use xlink:href="#ArialMT-72" x="683.691406"/>
       <use xlink:href="#ArialMT-66" x="716.992188"/>
       <use xlink:href="#ArialMT-6c" x="744.775391"/>
       <use xlink:href="#ArialMT-6f" x="766.992188"/>
       <use xlink:href="#ArialMT-77" x="822.607422"/>
       <use xlink:href="#ArialMT-20" x="894.824219"/>
       <use xlink:href="#ArialMT-6f" x="922.607422"/>
       <use xlink:href="#ArialMT-72" x="978.222656"/>
       <use xlink:href="#ArialMT-20" x="1011.523438"/>
       <use xlink:href="#ArialMT-6f" x="1039.306641"/>
       <use xlink:href="#ArialMT-76" x="1094.921875"/>
       <use xlink:href="#ArialMT-65" x="1144.921875"/>
       <use xlink:href="#ArialMT-72" x="1200.537109"/>
       <use xlink:href="#ArialMT-66" x="1233.837891"/>
       <use xlink:href="#ArialMT-6c" x="1261.621094"/>
       <use xlink:href="#ArialMT-6f" x="1283.837891"/>
       <use xlink:href="#ArialMT-77" x="1339.453125"/>
      </g>
     </g>
    </g>
    <g id="xtick_4">
     <g id="line2d_4">
      <path d="M 311.85 133.687786 
L 311.85 29.04 
" clip-path="url(#pab40aeb9f0)" style="fill: none; stroke: #cccccc; stroke-linecap: round"/>
     </g>
     <g id="text_4">
      <!-- division or modulo by zero -->
      <g style="fill: #262626" transform="translate(219.862147 239.106047) rotate(-45) scale(0.11 -0.11)">
       <defs>
        <path id="ArialMT-62" d="M 941 0 
L 419 0 
L 419 4581 
L 981 4581 
L 981 2947 
Q 1338 3394 1891 3394 
Q 2197 3394 2470 3270 
Q 2744 3147 2920 2923 
Q 3097 2700 3197 2384 
Q 3297 2069 3297 1709 
Q 3297 856 2875 390 
Q 2453 -75 1863 -75 
Q 1275 -75 941 416 
L 941 0 
z
M 934 1684 
Q 934 1088 1097 822 
Q 1363 388 1816 388 
Q 2184 388 2453 708 
Q 2722 1028 2722 1663 
Q 2722 2313 2464 2622 
Q 2206 2931 1841 2931 
Q 1472 2931 1203 2611 
Q 934 2291 934 1684 
z
" transform="scale(0.015625)"/>
        <path id="ArialMT-79" d="M 397 -1278 
L 334 -750 
Q 519 -800 656 -800 
Q 844 -800 956 -737 
Q 1069 -675 1141 -563 
Q 1194 -478 1313 -144 
Q 1328 -97 1363 -6 
L 103 3319 
L 709 3319 
L 1400 1397 
Q 1534 1031 1641 628 
Q 1738 1016 1872 1384 
L 2581 3319 
L 3144 3319 
L 1881 -56 
Q 1678 -603 1566 -809 
Q 1416 -1088 1222 -1217 
Q 1028 -1347 759 -1347 
Q 597 -1347 397 -1278 
z
" transform="scale(0.015625)"/>
        <path id="ArialMT-7a" d="M 125 0 
L 125 456 
L 2238 2881 
Q 1878 2863 1603 2863 
L 250 2863 
L 250 3319 
L 2963 3319 
L 2963 2947 
L 1166 841 
L 819 456 
Q 1197 484 1528 484 
L 3063 484 
L 3063 0 
L 125 0 
z
" transform="scale(0.015625)"/>
       </defs>
       <use xlink:href="#ArialMT-64"/>
       <use xlink:href="#ArialMT-69" x="55.615234"/>
       <use xlink:href="#ArialMT-76" x="77.832031"/>
       <use xlink:href="#ArialMT-69" x="127.832031"/>
       <use xlink:href="#ArialMT-73" x="150.048828"/>
       <use xlink:href="#ArialMT-69" x="200.048828"/>
       <use xlink:href="#ArialMT-6f" x="222.265625"/>
       <use xlink:href="#ArialMT-6e" x="277.880859"/>
       <use xlink:href="#ArialMT-20" x="333.496094"/>
       <use xlink:href="#ArialMT-6f" x="361.279297"/>
       <use xlink:href="#ArialMT-72" x="416.894531"/>
       <use xlink:href="#ArialMT-20" x="450.195312"/>
       <use xlink:href="#ArialMT-6d" x="477.978516"/>
       <use xlink:href="#ArialMT-6f" x="561.279297"/>
       <use xlink:href="#ArialMT-64" x="616.894531"/>
       <use xlink:href="#ArialMT-75" x="672.509766"/>
       <use xlink:href="#ArialMT-6c" x="728.125"/>
       <use xlink:href="#ArialMT-6f" x="750.341797"/>
       <use xlink:href="#ArialMT-20" x="805.957031"/>
       <use xlink:href="#ArialMT-62" x="833.740234"/>
       <use xlink:href="#ArialMT-79" x="889.355469"/>
       <use xlink:href="#ArialMT-20" x="939.355469"/>
       <use xlink:href="#ArialMT-7a" x="967.138672"/>
       <use xlink:href="#ArialMT-65" x="1017.138672"/>
       <use xlink:href="#ArialMT-72" x="1072.753906"/>
       <use xlink:href="#ArialMT-6f" x="1106.054688"/>
      </g>
     </g>
    </g>
    <g id="xtick_5">
     <g id="line2d_5">
      <path d="M 383.31 133.687786 
L 383.31 29.04 
" clip-path="url(#pab40aeb9f0)" style="fill: none; stroke: #cccccc; stroke-linecap: round"/>
     </g>
     <g id="text_5">
      <!-- stack underflow (0 &lt;=&gt; 2) -->
      <g style="fill: #262626" transform="translate(293.693275 236.829716) rotate(-45) scale(0.11 -0.11)">
       <defs>
        <path id="ArialMT-6b" d="M 425 0 
L 425 4581 
L 988 4581 
L 988 1969 
L 2319 3319 
L 3047 3319 
L 1778 2088 
L 3175 0 
L 2481 0 
L 1384 1697 
L 988 1316 
L 988 0 
L 425 0 
z
" transform="scale(0.015625)"/>
        <path id="ArialMT-28" d="M 1497 -1347 
Q 1031 -759 709 28 
Q 388 816 388 1659 
Q 388 2403 628 3084 
Q 909 3875 1497 4659 
L 1900 4659 
Q 1522 4009 1400 3731 
Q 1209 3300 1100 2831 
Q 966 2247 966 1656 
Q 966 153 1900 -1347 
L 1497 -1347 
z
" transform="scale(0.015625)"/>
        <path id="ArialMT-30" d="M 266 2259 
Q 266 3072 433 3567 
Q 600 4063 929 4331 
Q 1259 4600 1759 4600 
Q 2128 4600 2406 4451 
Q 2684 4303 2865 4023 
Q 3047 3744 3150 3342 
Q 3253 2941 3253 2259 
Q 3253 1453 3087 958 
Q 2922 463 2592 192 
Q 2263 -78 1759 -78 
Q 1097 -78 719 397 
Q 266 969 266 2259 
z
M 844 2259 
Q 844 1131 1108 757 
Q 1372 384 1759 384 
Q 2147 384 2411 759 
Q 2675 1134 2675 2259 
Q 2675 3391 2411 3762 
Q 2147 4134 1753 4134 
Q 1366 4134 1134 3806 
Q 844 3388 844 2259 
z
" transform="scale(0.015625)"/>
        <path id="ArialMT-3c" d="M 350 2003 
L 350 2528 
L 3384 3809 
L 3384 3250 
L 978 2263 
L 3384 1266 
L 3384 706 
L 350 2003 
z
" transform="scale(0.015625)"/>
        <path id="ArialMT-3d" d="M 3381 2694 
L 356 2694 
L 356 3219 
L 3381 3219 
L 3381 2694 
z
M 3381 1303 
L 356 1303 
L 356 1828 
L 3381 1828 
L 3381 1303 
z
" transform="scale(0.015625)"/>
        <path id="ArialMT-3e" d="M 3384 2003 
L 350 706 
L 350 1266 
L 2753 2263 
L 350 3250 
L 350 3809 
L 3384 2528 
L 3384 2003 
z
" transform="scale(0.015625)"/>
        <path id="ArialMT-32" d="M 3222 541 
L 3222 0 
L 194 0 
Q 188 203 259 391 
Q 375 700 629 1000 
Q 884 1300 1366 1694 
Q 2113 2306 2375 2664 
Q 2638 3022 2638 3341 
Q 2638 3675 2398 3904 
Q 2159 4134 1775 4134 
Q 1369 4134 1125 3890 
Q 881 3647 878 3216 
L 300 3275 
Q 359 3922 746 4261 
Q 1134 4600 1788 4600 
Q 2447 4600 2831 4234 
Q 3216 3869 3216 3328 
Q 3216 3053 3103 2787 
Q 2991 2522 2730 2228 
Q 2469 1934 1863 1422 
Q 1356 997 1212 845 
Q 1069 694 975 541 
L 3222 541 
z
" transform="scale(0.015625)"/>
        <path id="ArialMT-29" d="M 791 -1347 
L 388 -1347 
Q 1322 153 1322 1656 
Q 1322 2244 1188 2822 
Q 1081 3291 891 3722 
Q 769 4003 388 4659 
L 791 4659 
Q 1378 3875 1659 3084 
Q 1900 2403 1900 1659 
Q 1900 816 1576 28 
Q 1253 -759 791 -1347 
z
" transform="scale(0.015625)"/>
       </defs>
       <use xlink:href="#ArialMT-73"/>
       <use xlink:href="#ArialMT-74" x="50"/>
       <use xlink:href="#ArialMT-61" x="77.783203"/>
       <use xlink:href="#ArialMT-63" x="133.398438"/>
       <use xlink:href="#ArialMT-6b" x="183.398438"/>
       <use xlink:href="#ArialMT-20" x="233.398438"/>
       <use xlink:href="#ArialMT-75" x="261.181641"/>
       <use xlink:href="#ArialMT-6e" x="316.796875"/>
       <use xlink:href="#ArialMT-64" x="372.412109"/>
       <use xlink:href="#ArialMT-65" x="428.027344"/>
       <use xlink:href="#ArialMT-72" x="483.642578"/>
       <use xlink:href="#ArialMT-66" x="516.943359"/>
       <use xlink:href="#ArialMT-6c" x="544.726562"/>
       <use xlink:href="#ArialMT-6f" x="566.943359"/>
       <use xlink:href="#ArialMT-77" x="622.558594"/>
       <use xlink:href="#ArialMT-20" x="694.775391"/>
       <use xlink:href="#ArialMT-28" x="722.558594"/>
       <use xlink:href="#ArialMT-30" x="755.859375"/>
       <use xlink:href="#ArialMT-20" x="811.474609"/>
       <use xlink:href="#ArialMT-3c" x="839.257812"/>
       <use xlink:href="#ArialMT-3d" x="897.65625"/>
       <use xlink:href="#ArialMT-3e" x="956.054688"/>
       <use xlink:href="#ArialMT-20" x="1014.453125"/>
       <use xlink:href="#ArialMT-32" x="1042.236328"/>
       <use xlink:href="#ArialMT-29" x="1097.851562"/>
      </g>
     </g>
    </g>
    <g id="text_6">
     <!-- failure_reason -->
     <g style="fill: #262626" transform="translate(202.36875 272.831806) scale(0.12 -0.12)">
      <defs>
       <path id="ArialMT-5f" d="M -97 -1272 
L -97 -866 
L 3631 -866 
L 3631 -1272 
L -97 -1272 
z
" transform="scale(0.015625)"/>
      </defs>
      <use xlink:href="#ArialMT-66"/>
      <use xlink:href="#ArialMT-61" x="27.783203"/>
      <use xlink:href="#ArialMT-69" x="83.398438"/>
      <use xlink:href="#ArialMT-6c" x="105.615234"/>
      <use xlink:href="#ArialMT-75" x="127.832031"/>
      <use xlink:href="#ArialMT-72" x="183.447266"/>
      <use xlink:href="#ArialMT-65" x="216.748047"/>
      <use xlink:href="#ArialMT-5f" x="272.363281"/>
      <use xlink:href="#ArialMT-72" x="327.978516"/>
      <use xlink:href="#ArialMT-65" x="361.279297"/>
      <use xlink:href="#ArialMT-61" x="416.894531"/>
      <use xlink:href="#ArialMT-73" x="472.509766"/>
      <use xlink:href="#ArialMT-6f" x="522.509766"/>
      <use xlink:href="#ArialMT-6e" x="578.125"/>
     </g>
    </g>
   </g>
   <g id="matplotlib.axis_2">
    <g id="ytick_1">
     <g id="line2d_6">
      <path d="M 61.74 133.687786 
L 419.04 133.687786 
" clip-path="url(#pab40aeb9f0)" style="fill: none; stroke-dasharray: 3.7,1.6; stroke-dashoffset: 0; stroke: #cccccc; stroke-opacity: 0.7"/>
     </g>
     <g id="text_7">
      <!-- 0 -->
      <g style="fill: #262626" transform="translate(46.122969 137.624583) scale(0.11 -0.11)">
       <use xlink:href="#ArialMT-30"/>
      </g>
     </g>
    </g>
    <g id="ytick_2">
     <g id="line2d_7">
      <path d="M 61.74 91.150629 
L 419.04 91.150629 
" clip-path="url(#pab40aeb9f0)" style="fill: none; stroke-dasharray: 3.7,1.6; stroke-dashoffset: 0; stroke: #cccccc; stroke-opacity: 0.7"/>
     </g>
     <g id="text_8">
      <!-- 2000 -->
      <g style="fill: #262626" transform="translate(27.771875 95.087426) scale(0.11 -0.11)">
       <use xlink:href="#ArialMT-32"/>
       <use xlink:href="#ArialMT-30" x="55.615234"/>
       <use xlink:href="#ArialMT-30" x="111.230469"/>
       <use xlink:href="#ArialMT-30" x="166.845703"/>
      </g>
     </g>
    </g>
    <g id="ytick_3">
     <g id="line2d_8">
      <path d="M 61.74 48.613473 
L 419.04 48.613473 
" clip-path="url(#pab40aeb9f0)" style="fill: none; stroke-dasharray: 3.7,1.6; stroke-dashoffset: 0; stroke: #cccccc; stroke-opacity: 0.7"/>
     </g>
     <g id="text_9">
      <!-- 4000 -->
      <g style="fill: #262626" transform="translate(27.771875 52.550269) scale(0.11 -0.11)">
       <defs>
        <path id="ArialMT-34" d="M 2069 0 
L 2069 1097 
L 81 1097 
L 81 1613 
L 2172 4581 
L 2631 4581 
L 2631 1613 
L 3250 1613 
L 3250 1097 
L 2631 1097 
L 2631 0 
L 2069 0 
z
M 2069 1613 
L 2069 3678 
L 634 1613 
L 2069 1613 
z
" transform="scale(0.015625)"/>
       </defs>
       <use xlink:href="#ArialMT-34"/>
       <use xlink:href="#ArialMT-30" x="55.615234"/>
       <use xlink:href="#ArialMT-30" x="111.230469"/>
       <use xlink:href="#ArialMT-30" x="166.845703"/>
      </g>
     </g>
    </g>
    <g id="text_10">
     <!-- Count -->
     <g style="fill: #262626" transform="translate(21.386875 97.37358) rotate(-90) scale(0.12 -0.12)">
      <defs>
       <path id="ArialMT-43" d="M 3763 1606 
L 4369 1453 
Q 4178 706 3683 314 
Q 3188 -78 2472 -78 
Q 1731 -78 1267 223 
Q 803 525 561 1097 
Q 319 1669 319 2325 
Q 319 3041 592 3573 
Q 866 4106 1370 4382 
Q 1875 4659 2481 4659 
Q 3169 4659 3637 4309 
Q 4106 3959 4291 3325 
L 3694 3184 
Q 3534 3684 3231 3912 
Q 2928 4141 2469 4141 
Q 1941 4141 1586 3887 
Q 1231 3634 1087 3207 
Q 944 2781 944 2328 
Q 944 1744 1114 1308 
Q 1284 872 1643 656 
Q 2003 441 2422 441 
Q 2931 441 3284 734 
Q 3638 1028 3763 1606 
z
" transform="scale(0.015625)"/>
      </defs>
      <use xlink:href="#ArialMT-43"/>
      <use xlink:href="#ArialMT-6f" x="72.216797"/>
      <use xlink:href="#ArialMT-75" x="127.832031"/>
      <use xlink:href="#ArialMT-6e" x="183.447266"/>
      <use xlink:href="#ArialMT-74" x="239.0625"/>
     </g>
    </g>
   </g>
   <g id="patch_3">
    <path d="M 79.605 133.687786 
L 115.335 133.687786 
L 115.335 34.023228 
L 79.605 34.023228 
z
" clip-path="url(#pab40aeb9f0)" style="fill: #7f7f7f; stroke: #000000; stroke-linejoin: miter"/>
   </g>
   <g id="patch_4">
    <path d="M 151.065 133.687786 
L 186.795 133.687786 
L 186.795 87.237211 
L 151.065 87.237211 
z
" clip-path="url(#pab40aeb9f0)" style="fill: #7f7f7f; stroke: #000000; stroke-linejoin: miter"/>
   </g>
   <g id="patch_5">
    <path d="M 222.525 133.687786 
L 258.255 133.687786 
L 258.255 132.113911 
L 222.525 132.113911 
z
" clip-path="url(#pab40aeb9f0)" style="fill: #7f7f7f; stroke: #000000; stroke-linejoin: miter"/>
   </g>
   <g id="patch_6">
    <path d="M 293.985 133.687786 
L 329.715 133.687786 
L 329.715 133.4751 
L 293.985 133.4751 
z
" clip-path="url(#pab40aeb9f0)" style="fill: #7f7f7f; stroke: #000000; stroke-linejoin: miter"/>
   </g>
   <g id="patch_7">
    <path d="M 365.445 133.687786 
L 401.175 133.687786 
L 401.175 133.666517 
L 365.445 133.666517 
z
" clip-path="url(#pab40aeb9f0)" style="fill: #7f7f7f; stroke: #000000; stroke-linejoin: miter"/>
   </g>
   <g id="patch_8">
    <path d="M 61.74 133.687786 
L 61.74 29.04 
" style="fill: none; stroke: #cccccc; stroke-width: 1.25; stroke-linejoin: miter; stroke-linecap: square"/>
   </g>
   <g id="patch_9">
    <path d="M 61.74 133.687786 
L 419.04 133.687786 
" style="fill: none; stroke: #cccccc; stroke-width: 1.25; stroke-linejoin: miter; stroke-linecap: square"/>
   </g>
   <g id="text_11">
    <!-- Failure Reason Distribution for Empty Failure Invariants -->
    <g style="fill: #262626" transform="translate(68.442656 23.04) scale(0.14 -0.14)">
     <defs>
      <path id="ArialMT-46" d="M 525 0 
L 525 4581 
L 3616 4581 
L 3616 4041 
L 1131 4041 
L 1131 2622 
L 3281 2622 
L 3281 2081 
L 1131 2081 
L 1131 0 
L 525 0 
z
" transform="scale(0.015625)"/>
      <path id="ArialMT-52" d="M 503 0 
L 503 4581 
L 2534 4581 
Q 3147 4581 3465 4457 
Q 3784 4334 3975 4021 
Q 4166 3709 4166 3331 
Q 4166 2844 3850 2509 
Q 3534 2175 2875 2084 
Q 3116 1969 3241 1856 
Q 3506 1613 3744 1247 
L 4541 0 
L 3778 0 
L 3172 953 
Q 2906 1366 2734 1584 
Q 2563 1803 2427 1890 
Q 2291 1978 2150 2013 
Q 2047 2034 1813 2034 
L 1109 2034 
L 1109 0 
L 503 0 
z
M 1109 2559 
L 2413 2559 
Q 2828 2559 3062 2645 
Q 3297 2731 3419 2920 
Q 3541 3109 3541 3331 
Q 3541 3656 3305 3865 
Q 3069 4075 2559 4075 
L 1109 4075 
L 1109 2559 
z
" transform="scale(0.015625)"/>
      <path id="ArialMT-44" d="M 494 0 
L 494 4581 
L 2072 4581 
Q 2606 4581 2888 4516 
Q 3281 4425 3559 4188 
Q 3922 3881 4101 3404 
Q 4281 2928 4281 2316 
Q 4281 1794 4159 1391 
Q 4038 988 3847 723 
Q 3656 459 3429 307 
Q 3203 156 2883 78 
Q 2563 0 2147 0 
L 494 0 
z
M 1100 541 
L 2078 541 
Q 2531 541 2789 625 
Q 3047 709 3200 863 
Q 3416 1078 3536 1442 
Q 3656 1806 3656 2325 
Q 3656 3044 3420 3430 
Q 3184 3816 2847 3947 
Q 2603 4041 2063 4041 
L 1100 4041 
L 1100 541 
z
" transform="scale(0.015625)"/>
      <path id="ArialMT-45" d="M 506 0 
L 506 4581 
L 3819 4581 
L 3819 4041 
L 1113 4041 
L 1113 2638 
L 3647 2638 
L 3647 2100 
L 1113 2100 
L 1113 541 
L 3925 541 
L 3925 0 
L 506 0 
z
" transform="scale(0.015625)"/>
      <path id="ArialMT-70" d="M 422 -1272 
L 422 3319 
L 934 3319 
L 934 2888 
Q 1116 3141 1344 3267 
Q 1572 3394 1897 3394 
Q 2322 3394 2647 3175 
Q 2972 2956 3137 2557 
Q 3303 2159 3303 1684 
Q 3303 1175 3120 767 
Q 2938 359 2589 142 
Q 2241 -75 1856 -75 
Q 1575 -75 1351 44 
Q 1128 163 984 344 
L 984 -1272 
L 422 -1272 
z
M 931 1641 
Q 931 1000 1190 694 
Q 1450 388 1819 388 
Q 2194 388 2461 705 
Q 2728 1022 2728 1688 
Q 2728 2322 2467 2637 
Q 2206 2953 1844 2953 
Q 1484 2953 1207 2617 
Q 931 2281 931 1641 
z
" transform="scale(0.015625)"/>
      <path id="ArialMT-49" d="M 597 0 
L 597 4581 
L 1203 4581 
L 1203 0 
L 597 0 
z
" transform="scale(0.015625)"/>
     </defs>
     <use xlink:href="#ArialMT-46"/>
     <use xlink:href="#ArialMT-61" x="61.083984"/>
     <use xlink:href="#ArialMT-69" x="116.699219"/>
     <use xlink:href="#ArialMT-6c" x="138.916016"/>
     <use xlink:href="#ArialMT-75" x="161.132812"/>
     <use xlink:href="#ArialMT-72" x="216.748047"/>
     <use xlink:href="#ArialMT-65" x="250.048828"/>
     <use xlink:href="#ArialMT-20" x="305.664062"/>
     <use xlink:href="#ArialMT-52" x="333.447266"/>
     <use xlink:href="#ArialMT-65" x="405.664062"/>
     <use xlink:href="#ArialMT-61" x="461.279297"/>
     <use xlink:href="#ArialMT-73" x="516.894531"/>
     <use xlink:href="#ArialMT-6f" x="566.894531"/>
     <use xlink:href="#ArialMT-6e" x="622.509766"/>
     <use xlink:href="#ArialMT-20" x="678.125"/>
     <use xlink:href="#ArialMT-44" x="705.908203"/>
     <use xlink:href="#ArialMT-69" x="778.125"/>
     <use xlink:href="#ArialMT-73" x="800.341797"/>
     <use xlink:href="#ArialMT-74" x="850.341797"/>
     <use xlink:href="#ArialMT-72" x="878.125"/>
     <use xlink:href="#ArialMT-69" x="911.425781"/>
     <use xlink:href="#ArialMT-62" x="933.642578"/>
     <use xlink:href="#ArialMT-75" x="989.257812"/>
     <use xlink:href="#ArialMT-74" x="1044.873047"/>
     <use xlink:href="#ArialMT-69" x="1072.65625"/>
     <use xlink:href="#ArialMT-6f" x="1094.873047"/>
     <use xlink:href="#ArialMT-6e" x="1150.488281"/>
     <use xlink:href="#ArialMT-20" x="1206.103516"/>
     <use xlink:href="#ArialMT-66" x="1233.886719"/>
     <use xlink:href="#ArialMT-6f" x="1261.669922"/>
     <use xlink:href="#ArialMT-72" x="1317.285156"/>
     <use xlink:href="#ArialMT-20" x="1350.585938"/>
     <use xlink:href="#ArialMT-45" x="1378.369141"/>
     <use xlink:href="#ArialMT-6d" x="1445.068359"/>
     <use xlink:href="#ArialMT-70" x="1528.369141"/>
     <use xlink:href="#ArialMT-74" x="1583.984375"/>
     <use xlink:href="#ArialMT-79" x="1611.767578"/>
     <use xlink:href="#ArialMT-20" x="1661.767578"/>
     <use xlink:href="#ArialMT-46" x="1689.550781"/>
     <use xlink:href="#ArialMT-61" x="1750.634766"/>
     <use xlink:href="#ArialMT-69" x="1806.25"/>
     <use xlink:href="#ArialMT-6c" x="1828.466797"/>
     <use xlink:href="#ArialMT-75" x="1850.683594"/>
     <use xlink:href="#ArialMT-72" x="1906.298828"/>
     <use xlink:href="#ArialMT-65" x="1939.599609"/>
     <use xlink:href="#ArialMT-20" x="1995.214844"/>
     <use xlink:href="#ArialMT-49" x="2022.998047"/>
     <use xlink:href="#ArialMT-6e" x="2050.78125"/>
     <use xlink:href="#ArialMT-76" x="2106.396484"/>
     <use xlink:href="#ArialMT-61" x="2156.396484"/>
     <use xlink:href="#ArialMT-72" x="2212.011719"/>
     <use xlink:href="#ArialMT-69" x="2245.3125"/>
     <use xlink:href="#ArialMT-61" x="2267.529297"/>
     <use xlink:href="#ArialMT-6e" x="2323.144531"/>
     <use xlink:href="#ArialMT-74" x="2378.759766"/>
     <use xlink:href="#ArialMT-73" x="2406.542969"/>
    </g>
   </g>
  </g>
 </g>
 <defs>
  <clipPath id="pab40aeb9f0">
   <rect x="61.74" y="29.04" width="357.3" height="104.647786"/>
  </clipPath>
 </defs>
</svg>
